<svg width="68" height="69" viewBox="0 0 68 69" fill="none" xmlns="http://www.w3.org/2000/svg">
<path d="M66.5552 30.1877L62.6877 18.6302L36.6352 3.66587C35.8287 3.21279 34.922 2.9751 34.0002 2.9751C33.0784 2.9751 32.1717 3.21279 31.3652 3.66587L5.3127 18.6302L1.4452 30.1877C1.03149 31.3873 1.05236 32.6972 1.50407 33.8826C1.95578 35.068 2.80878 36.0514 3.9102 36.6565L5.3127 37.4327V47.4377C5.37379 48.3249 5.65024 49.1829 6.11741 49.9354C6.58458 50.6878 7.22796 51.3113 7.9902 51.7502L31.3652 65.1621C32.1717 65.6152 33.0784 65.8529 34.0002 65.8529C34.922 65.8529 35.8287 65.6152 36.6352 65.1621L60.0102 51.7502C60.7724 51.3113 61.4158 50.6878 61.883 49.9354C62.3501 49.1829 62.6266 48.3249 62.6877 47.4377V37.4327L64.0902 36.6565C65.1916 36.0514 66.0446 35.068 66.4963 33.8826C66.948 32.6972 66.9689 31.3873 66.5552 30.1877ZM42.5002 42.5646L40.4602 37.0446L59.5002 26.4359L61.3702 31.9559L42.5002 42.5646ZM34.0002 8.36649L57.2052 21.5627L34.0002 34.5002L10.7952 21.5627L34.0002 8.36649ZM6.4602 31.9559L8.5002 26.4359L27.5402 37.0446L25.5002 42.5646L6.4602 31.9559ZM10.7102 40.3652L28.7727 50.3702L31.4077 42.4352V59.1246L10.6252 47.4377L10.7102 40.3652ZM57.3752 47.4377L36.6352 59.1246V42.4352L39.3127 50.3702L57.3752 40.3652V47.4377Z" fill="black"/>
</svg>
